<svg xmlns="http://www.w3.org/2000/svg" width="24" height="24" viewBox="0 0 24 24"
     fill="none" stroke="currentColor" stroke-width="2" stroke-linecap="round" stroke-linejoin="round">
  <path d="M8 9a1.6 1.6 0 1 0 0-3.2A1.6 1.6 0 0 0 8 9z" />
  <path d="M16 9a1.6 1.6 0 1 0 0-3.2A1.6 1.6 0 0 0 16 9z" />
  <path d="M5.5 13.5a1.5 1.5 0 1 0 0-3 1.5 1.5 0 0 0 0 3z" />
  <path d="M18.5 13.5a1.5 1.5 0 1 0 0-3 1.5 1.5 0 0 0 0 3z" />
  <path d="M12 21c2.5 0 4.5-1.8 4.5-3.8 0-1.6-1.4-2.7-3-3.6-.8-.4-1-1-1.5-1s-.7.6-1.5 1c-1.6.9-3 2-3 3.6C7.5 19.2 9.5 21 12 21z" />
</svg>
