<svg xmlns="http://www.w3.org/2000/svg" width="610" height="870" viewBox="210 50 610 870">
<g>
<path d="M 552.03 896.62 C537.12,898.70 501.26,899.23 487.00,897.59 C452.16,893.57 423.36,884.69 391.50,868.14 C312.53,827.10 254.37,747.79 235.95,656.00 C231.70,634.82 230.04,617.96 230.02,595.55 C230.00,578.94 231.51,554.27 232.61,553.08 C233.83,551.77 234.50,555.20 234.50,562.75 C234.50,571.47 236.13,575.08 237.34,569.04 C237.68,567.37 238.49,566.00 239.16,566.00 C239.83,566.00 241.44,565.00 242.74,563.78 C244.75,561.89 245.25,561.78 246.04,563.03 C246.55,563.84 246.98,566.38 246.98,568.68 C247.00,573.69 248.74,575.70 253.78,576.55 C257.62,577.20 259.44,577.42 260.21,578.43 C260.90,579.34 260.76,580.88 260.47,583.92 C260.45,584.21 260.42,584.51 260.39,584.82 C259.85,590.71 260.04,591.82 261.96,594.25 C263.61,596.32 265.02,597.00 267.69,597.00 C271.35,597.00 271.51,596.58 269.57,591.93 C269.13,590.85 269.73,589.99 271.51,589.18 C275.35,587.43 279.35,587.75 281.77,590.00 C284.34,592.40 284.71,592.43 286.64,590.50 C288.56,588.59 296.95,588.51 299.52,590.39 C300.85,591.37 301.35,592.81 301.19,595.20 C301.03,597.68 301.60,599.22 303.28,600.80 C305.34,602.73 305.96,602.84 308.77,601.78 C313.34,600.05 317.33,601.67 318.01,605.52 C318.46,608.09 318.97,608.50 321.70,608.50 C323.61,608.50 325.63,609.32 326.80,610.57 C327.87,611.71 331.32,613.46 334.46,614.44 C339.53,616.04 340.09,616.48 339.49,618.37 C337.95,623.20 338.01,625.57 339.73,627.65 C341.11,629.33 342.00,629.61 343.75,628.93 C344.99,628.46 346.00,627.37 346.00,626.53 C346.00,624.41 347.72,624.61 348.94,626.88 C349.49,627.92 351.08,629.06 352.47,629.40 C355.78,630.24 355.66,631.27 351.86,634.46 C349.35,636.57 348.11,636.97 345.61,636.44 C343.90,636.07 341.79,635.15 340.92,634.39 C340.05,633.62 339.04,633.00 338.67,633.00 C337.31,633.00 338.08,634.92 341.46,639.94 C344.54,644.52 344.79,645.38 343.76,647.79 C342.04,651.85 340.95,653.00 338.88,653.00 C336.47,653.00 336.47,655.51 338.88,658.10 C339.92,659.21 341.31,662.89 341.97,666.27 C343.38,673.44 347.71,682.48 351.35,685.88 C353.74,688.10 355.65,693.02 355.16,695.67 C354.82,697.53 356.94,698.30 358.60,696.92 C359.84,695.89 360.44,696.01 361.91,697.58 C362.91,698.64 373.56,710.30 385.59,723.50 C424.06,765.71 455.31,799.45 457.64,801.28 C460.92,803.87 470.38,807.88 474.93,808.61 C484.95,810.21 496.23,804.81 506.35,793.57 C510.34,789.13 523.65,774.32 535.93,760.65 C551.98,742.78 558.49,736.17 559.08,737.14 C559.58,737.94 559.35,739.35 558.52,740.61 C557.22,742.59 557.44,743.04 561.56,746.74 C564.51,749.39 566.00,751.55 566.00,753.16 C566.00,756.18 567.72,758.00 570.58,758.00 C573.53,758.00 574.79,759.78 575.18,764.51 C575.48,768.24 575.73,768.53 579.05,769.00 C583.96,769.69 588.05,773.08 587.33,775.85 C585.94,781.16 593.46,786.58 600.98,785.69 C606.42,785.04 607.67,785.62 608.15,788.99 C608.64,792.47 612.84,794.20 623.00,795.11 C627.67,795.53 633.95,796.83 636.95,798.01 C641.74,799.89 642.92,800.00 646.67,798.95 C650.24,797.95 651.60,798.02 654.99,799.38 C657.22,800.27 660.38,801.00 662.01,801.00 C664.40,801.00 665.48,801.80 667.59,805.14 L 670.21 809.29 L 680.68 808.70 C691.51,808.08 695.52,808.80 697.77,811.76 C699.44,813.97 705.96,814.23 708.29,812.18 C709.94,810.74 710.03,810.76 709.37,812.47 C708.83,813.90 708.99,814.14 710.08,813.50 C710.86,813.04 708.69,815.48 705.25,818.92 C701.81,822.37 699.00,825.56 699.00,826.03 C699.00,827.47 676.28,845.76 665.62,852.92 C631.15,876.03 592.17,891.03 552.03,896.62 ZM 488.00 698.28 C488.00,698.50 485.80,700.54 483.12,702.80 C478.58,706.63 478.13,706.80 476.75,705.21 C475.42,703.69 475.46,703.17 477.12,700.50 C478.15,698.85 478.99,697.89 478.99,698.36 C479.00,698.83 479.83,698.20 480.84,696.95 C482.79,694.54 485.57,695.07 484.57,697.67 C484.16,698.76 484.52,698.97 486.01,698.50 C487.10,698.15 488.00,698.05 488.00,698.28 ZM 469.96 688.29 C469.95,689.50 469.36,691.52 468.67,692.77 L 467.41 695.04 L 464.90 692.27 C461.67,688.69 459.06,685.02 460.92,686.67 C461.95,687.59 462.70,687.43 464.27,685.97 C466.77,683.63 470.02,684.95 469.96,688.29 ZM 480.03 703.00 L 478.73 705.50 L 481.36 703.08 C484.08,700.58 484.97,698.33 482.75,699.59 C481.75,700.15 481.75,700.02 482.75,698.95 C483.44,698.21 484.00,697.17 484.00,696.65 C484.00,695.36 480.09,698.97 478.74,701.49 C477.75,703.35 477.81,703.39 479.50,702.00 C481.23,700.58 481.26,700.64 480.03,703.00 ZM 365.00 625.41 C365.00,626.81 361.88,625.84 361.29,624.25 C360.94,623.29 360.28,622.25 359.82,621.94 C359.37,621.63 359.71,620.51 360.57,619.44 C361.44,618.37 361.90,618.01 361.59,618.63 C361.28,619.26 361.92,620.90 363.01,622.29 C364.11,623.68 365.00,625.08 365.00,625.41 ZM 452.75 674.74 C453.40,676.71 451.29,676.98 449.63,675.14 C448.10,673.45 448.13,673.34 450.19,673.50 C451.40,673.58 452.55,674.14 452.75,674.74 ZM 629.00 787.00 C629.00,787.55 628.33,788.00 627.50,788.00 C626.67,788.00 626.00,787.55 626.00,787.00 C626.00,786.45 626.67,786.00 627.50,786.00 C628.33,786.00 629.00,786.45 629.00,787.00 Z" fill="rgb(252,58,2)"/>
<path d="M 365.00 625.41 C365.00,625.08 364.11,623.68 363.01,622.29 C361.92,620.90 361.28,619.26 361.59,618.63 C361.90,618.01 361.44,618.37 360.57,619.44 C359.71,620.51 359.37,621.63 359.82,621.94 C360.28,622.25 360.94,623.29 361.29,624.25 C361.65,625.21 362.93,625.95 363.89,626.07 C360.21,627.75 356.81,629.94 353.84,632.64 C355.55,630.82 355.05,630.05 352.47,629.40 C351.08,629.06 349.49,627.92 348.94,626.88 C347.72,624.61 346.00,624.41 346.00,626.53 C346.00,627.37 344.99,628.46 343.75,628.93 C342.00,629.61 341.11,629.33 339.73,627.65 C338.01,625.57 337.95,623.20 339.49,618.37 C340.09,616.48 339.53,616.04 334.46,614.44 C331.32,613.46 327.87,611.71 326.80,610.57 C325.63,609.32 323.61,608.50 321.70,608.50 C318.97,608.50 318.46,608.09 318.01,605.52 C317.33,601.67 313.34,600.05 308.77,601.78 C305.96,602.84 305.34,602.73 303.28,600.80 C301.60,599.22 301.03,597.68 301.19,595.20 C301.35,592.81 300.85,591.37 299.52,590.39 C296.95,588.51 288.56,588.59 286.64,590.50 C284.71,592.43 284.34,592.40 281.77,590.00 C279.35,587.75 275.35,587.43 271.51,589.18 C269.73,589.99 269.13,590.85 269.57,591.93 C271.51,596.58 271.35,597.00 267.69,597.00 C265.02,597.00 263.61,596.32 261.96,594.25 C260.04,591.82 259.85,590.71 260.39,584.82 C260.42,584.51 260.45,584.21 260.47,583.92 C260.76,580.88 260.90,579.34 260.21,578.43 C259.44,577.42 257.62,577.20 253.78,576.55 C248.74,575.70 247.00,573.69 246.98,568.68 C246.98,566.38 246.55,563.84 246.04,563.03 C245.25,561.78 244.75,561.89 242.74,563.78 C241.44,565.00 239.83,566.00 239.16,566.00 C238.49,566.00 237.68,567.37 237.34,569.04 C236.13,575.08 234.50,571.47 234.50,562.75 C234.50,555.20 233.83,551.77 232.61,553.08 C232.52,553.19 232.42,553.47 232.31,553.92 C232.74,549.67 233.04,546.54 233.07,546.00 C233.32,541.76 238.23,516.58 240.01,510.50 C241.13,506.65 242.28,502.38 242.55,501.00 C243.88,494.37 250.84,473.88 256.65,459.50 C269.56,427.52 289.98,391.59 310.64,364.48 C314.27,359.71 314.85,359.30 315.33,361.15 C315.88,363.26 316.85,363.32 321.31,361.48 C322.66,360.93 323.26,361.28 323.68,362.88 C324.46,365.86 328.30,366.56 332.62,364.51 C336.11,362.85 336.33,362.86 339.08,364.90 C340.98,366.31 343.41,367.00 346.47,367.00 C350.07,367.00 351.46,367.52 353.19,369.50 C354.38,370.88 356.13,372.00 357.08,372.00 C358.38,372.00 358.76,372.79 358.65,375.25 L 358.50 378.50 L 368.17 378.50 C373.48,378.50 378.13,378.80 378.50,379.17 C378.87,379.54 378.80,382.24 378.33,385.16 C377.66,389.35 377.06,390.54 375.49,390.78 C367.75,391.95 366.77,393.62 370.61,399.16 C372.72,402.20 373.92,403.01 376.39,403.03 C378.10,403.05 381.98,403.92 385.00,404.96 C390.36,406.80 390.52,406.97 391.37,411.52 C392.06,415.19 392.91,416.59 395.37,418.09 C397.09,419.13 399.46,419.99 400.63,420.00 C403.22,420.00 404.61,421.56 405.56,425.51 C406.56,429.67 407.83,431.00 410.80,431.00 C413.48,431.00 420.00,424.93 420.00,422.43 C420.00,421.71 420.42,420.86 420.93,420.54 C422.30,419.69 423.33,421.89 422.22,423.29 C421.69,423.96 420.95,426.24 420.56,428.38 C419.89,432.12 419.94,432.23 422.34,431.63 C423.70,431.29 425.52,430.74 426.38,430.41 C428.16,429.72 429.52,432.31 430.47,438.19 C430.90,440.84 431.69,442.08 433.28,442.56 C436.67,443.59 439.00,446.06 439.00,448.62 C439.00,451.35 440.80,452.45 451.00,455.96 C457.11,458.07 458.56,458.97 458.83,460.83 C459.27,463.91 460.87,464.35 468.61,463.53 C473.21,463.03 475.66,462.25 476.81,460.91 C478.17,459.32 479.81,459.00 486.64,459.00 L 494.84 459.00 L 496.36 465.68 C497.33,469.91 497.55,472.97 496.98,474.03 C496.44,475.05 496.49,477.18 497.12,479.45 C498.01,482.68 498.45,483.10 500.32,482.50 C507.78,480.14 511.00,481.14 511.00,485.84 C511.00,490.00 516.44,493.99 522.10,494.00 C525.42,494.00 527.19,494.55 528.50,496.00 C529.50,497.10 531.11,498.00 532.08,498.00 C534.88,498.00 537.00,500.84 537.00,504.57 C537.00,507.98 537.03,508.00 541.60,508.00 C544.12,508.00 548.71,508.73 551.80,509.63 C555.81,510.80 559.50,511.10 564.83,510.70 L 572.25 510.14 L 577.11 514.92 C581.45,519.19 582.67,519.82 588.57,520.79 C596.66,522.13 599.60,523.95 601.55,528.84 C603.45,533.57 607.48,536.00 613.44,536.00 C616.94,536.00 618.22,536.43 618.69,537.75 C619.04,538.71 620.15,540.31 621.16,541.29 C622.17,542.27 623.00,543.51 623.00,544.04 C623.00,545.80 618.96,549.09 617.71,548.34 C617.01,547.92 617.09,548.35 617.92,549.36 C618.70,550.33 618.86,550.97 618.27,550.81 C617.68,550.64 617.27,550.82 617.35,551.22 C617.43,551.61 615.08,554.38 612.13,557.37 C609.10,560.44 607.06,563.29 607.45,563.92 C607.85,564.57 598.92,575.24 586.23,589.27 C574.18,602.60 558.30,620.25 550.94,628.50 C529.63,652.38 501.53,683.24 487.61,698.16 C487.25,698.17 486.66,698.29 486.01,698.50 C484.52,698.97 484.16,698.76 484.57,697.67 C485.57,695.07 482.79,694.54 480.84,696.95 C479.83,698.20 479.00,698.83 478.99,698.36 C478.99,697.89 478.15,698.85 477.12,700.50 C475.89,702.48 475.55,703.28 476.00,704.18 C470.16,698.22 456.21,682.97 435.60,660.00 C415.86,638.00 409.41,631.47 404.02,628.04 C392.76,620.88 377.48,620.30 364.98,625.59 C364.99,625.53 365.00,625.47 365.00,625.41 ZM 698.41 826.87 C698.79,826.45 699.00,826.16 699.00,826.03 C699.00,825.56 701.81,822.37 705.25,818.92 C708.69,815.48 710.86,813.04 710.08,813.50 C708.99,814.14 708.83,813.90 709.37,812.47 C710.03,810.76 709.94,810.74 708.29,812.18 C705.96,814.23 699.44,813.97 697.77,811.76 C695.52,808.80 691.51,808.08 680.68,808.70 L 670.21 809.29 L 667.59 805.14 C665.48,801.80 664.40,801.00 662.01,801.00 C660.38,801.00 657.22,800.27 654.99,799.38 C651.60,798.02 650.24,797.95 646.67,798.95 C642.92,800.00 641.74,799.89 636.95,798.01 C633.95,796.83 627.67,795.53 623.00,795.11 C612.84,794.20 608.64,792.47 608.15,788.99 C607.67,785.62 606.42,785.04 600.98,785.69 C593.46,786.58 585.94,781.16 587.33,775.85 C588.05,773.08 583.96,769.69 579.05,769.00 C575.73,768.53 575.48,768.24 575.18,764.51 C574.79,759.78 573.53,758.00 570.58,758.00 C567.72,758.00 566.00,756.18 566.00,753.16 C566.00,751.55 564.51,749.39 561.56,746.74 C557.44,743.04 557.22,742.59 558.52,740.61 C559.35,739.35 559.58,737.94 559.08,737.14 C558.49,736.17 551.98,742.78 535.93,760.65 C523.65,774.32 510.34,789.13 506.35,793.57 C503.46,796.78 500.47,799.51 497.45,801.74 C502.80,797.36 510.02,789.49 523.83,774.10 C537.40,758.98 549.85,744.95 551.50,742.92 C553.15,740.90 561.51,731.43 570.08,721.87 C578.65,712.32 593.49,695.72 603.05,685.00 C619.13,666.96 626.21,659.10 662.43,619.05 C676.23,603.78 685.61,593.87 682.41,597.92 C681.36,599.25 681.06,600.02 681.75,599.62 C684.03,598.28 687.34,598.04 688.63,599.11 C690.65,600.79 692.26,599.07 691.63,595.92 C691.32,594.36 691.50,592.81 692.03,592.48 C692.56,592.15 693.00,592.58 693.00,593.44 C693.00,595.16 694.55,595.54 695.47,594.04 C696.50,592.38 699.00,594.12 699.00,596.48 C699.00,599.60 700.77,600.81 705.92,601.18 C711.79,601.61 713.07,603.69 710.07,607.90 C707.32,611.77 708.54,614.00 713.42,614.00 C717.36,614.00 719.00,615.55 719.00,619.27 C719.00,623.61 720.70,626.10 723.29,625.57 C724.51,625.32 727.19,624.84 729.25,624.51 L 733.00 623.91 L 733.00 627.99 C733.00,631.36 733.64,632.71 736.71,635.78 C738.75,637.83 741.33,639.96 742.46,640.52 C743.80,641.20 744.61,642.74 744.82,645.02 C745.00,646.94 745.55,648.91 746.04,649.42 C748.15,651.58 754.59,652.87 760.49,652.32 C767.95,651.62 770.00,653.08 770.00,659.10 C770.00,664.06 771.80,664.91 776.34,662.10 C778.21,660.94 780.87,660.00 782.25,660.00 C783.63,660.00 785.32,659.33 786.00,658.50 C787.71,656.44 789.37,656.61 788.53,658.75 C788.16,659.71 787.77,660.95 787.68,661.50 C787.58,662.05 787.12,662.77 786.67,663.11 C786.21,663.45 785.83,665.90 785.83,668.56 C785.83,671.22 785.19,674.31 784.41,675.43 C783.37,676.92 783.16,679.08 783.62,683.61 C784.23,689.52 782.43,697.49 779.83,700.45 C779.38,700.97 779.00,702.24 779.00,703.26 C779.00,709.04 760.84,746.96 749.08,765.73 C734.66,788.76 717.58,809.26 698.41,826.87 ZM 343.16 670.80 C342.66,669.25 342.26,667.72 341.97,666.27 C341.31,662.89 339.92,659.21 338.88,658.10 C336.47,655.51 336.47,653.00 338.88,653.00 C340.95,653.00 342.04,651.85 343.76,647.79 C344.79,645.38 344.54,644.52 341.46,639.94 C338.08,634.92 337.31,633.00 338.67,633.00 C339.04,633.00 340.05,633.62 340.92,634.39 C341.79,635.15 343.90,636.07 345.61,636.44 C348.11,636.97 349.35,636.57 351.86,634.46 C352.16,634.21 352.43,633.98 352.68,633.76 C347.84,638.73 342.38,649.30 341.42,655.68 C340.83,659.63 341.56,665.42 343.16,670.80 ZM 469.96 688.29 C470.02,684.95 466.77,683.63 464.27,685.97 C462.70,687.43 461.95,687.59 460.92,686.67 C459.06,685.02 461.67,688.69 464.90,692.27 L 467.41 695.04 L 468.67 692.77 C469.36,691.52 469.95,689.50 469.96,688.29 ZM 361.68 697.34 C360.37,696.00 359.77,695.95 358.60,696.92 C356.94,698.30 354.82,697.53 355.16,695.67 C355.65,693.02 353.74,688.10 351.35,685.88 C349.71,684.35 347.93,681.67 346.34,678.53 C348.35,681.77 354.11,688.82 361.68,697.34 ZM 480.03 703.00 C481.26,700.64 481.23,700.58 479.50,702.00 C477.81,703.39 477.75,703.35 478.74,701.49 C480.09,698.97 484.00,695.36 484.00,696.65 C484.00,697.17 483.44,698.21 482.75,698.95 C481.75,700.02 481.75,700.15 482.75,699.59 C484.97,698.33 484.08,700.58 481.36,703.08 L 478.73 705.50 ZM 452.75 674.74 C452.55,674.14 451.40,673.58 450.19,673.50 C448.13,673.34 448.10,673.45 449.63,675.14 C451.29,676.98 453.40,676.71 452.75,674.74 ZM 694.09 590.55 C693.44,590.15 692.18,590.43 691.30,591.16 C689.83,592.38 689.81,592.29 691.08,590.25 C692.56,587.87 694.08,587.75 694.82,589.95 C695.09,590.77 694.81,591.00 694.09,590.55 ZM 230.54 615.03 C231.31,628.80 233.01,641.37 235.95,656.00 C240.57,679.05 247.71,701.32 257.05,722.39 C243.81,692.64 235.00,660.59 231.44,627.50 C231.05,623.92 230.75,619.68 230.54,615.03 ZM 789.97 663.25 C790.00,666.13 789.54,666.68 788.50,665.01 C788.17,664.46 788.35,663.22 788.92,662.26 C789.79,660.75 789.94,660.89 789.97,663.25 ZM 629.00 787.00 C629.00,786.45 628.33,786.00 627.50,786.00 C626.67,786.00 626.00,786.45 626.00,787.00 C626.00,787.55 626.67,788.00 627.50,788.00 C628.33,788.00 629.00,787.55 629.00,787.00 ZM 483.76 702.26 C480.90,705.28 479.21,707.00 479.06,707.00 C478.95,707.00 478.59,706.71 477.98,706.14 C478.86,706.30 480.06,705.38 483.12,702.80 C483.33,702.62 483.55,702.44 483.76,702.26 ZM 457.18 800.87 C453.70,797.57 435.26,777.75 410.33,750.56 C433.79,776.05 453.87,797.65 457.18,800.87 ZM 552.03 896.62 C583.23,892.28 613.73,882.25 641.96,867.14 C614.09,882.14 583.76,892.20 552.03,896.62 ZM 488.44 806.85 C483.83,808.68 479.27,809.30 474.93,808.61 C477.09,808.95 481.25,808.68 484.18,808.00 C485.74,807.63 487.13,807.28 488.44,806.85 ZM 673.26 847.46 C678.46,843.58 684.36,838.95 689.20,834.98 C684.02,839.35 678.70,843.51 673.26,847.46 Z" fill="rgb(253,89,2)"/>
<path d="M 783.04 692.64 C783.66,689.67 783.91,686.41 783.62,683.61 C783.16,679.08 783.37,676.92 784.41,675.43 C785.19,674.31 785.83,671.22 785.83,668.56 C785.83,665.90 786.21,663.45 786.67,663.11 C787.12,662.77 787.58,662.05 787.68,661.50 C787.77,660.95 788.16,659.71 788.53,658.75 C789.37,656.61 787.71,656.44 786.00,658.50 C785.32,659.33 783.63,660.00 782.25,660.00 C780.87,660.00 778.21,660.94 776.34,662.10 C771.80,664.91 770.00,664.06 770.00,659.10 C770.00,653.08 767.95,651.62 760.49,652.32 C754.59,652.87 748.15,651.58 746.04,649.42 C745.55,648.91 745.00,646.94 744.82,645.02 C744.61,642.74 743.80,641.20 742.46,640.52 C741.33,639.96 738.75,637.83 736.71,635.78 C733.64,632.71 733.00,631.36 733.00,627.99 L 733.00 623.91 L 729.25 624.51 C727.19,624.84 724.51,625.32 723.29,625.57 C720.70,626.10 719.00,623.61 719.00,619.27 C719.00,615.55 717.36,614.00 713.42,614.00 C708.54,614.00 707.32,611.77 710.07,607.90 C713.07,603.69 711.79,601.61 705.92,601.18 C700.77,600.81 699.00,599.60 699.00,596.48 C699.00,594.12 696.50,592.38 695.47,594.04 C694.55,595.54 693.00,595.16 693.00,593.44 C693.00,592.58 692.56,592.15 692.03,592.48 C691.50,592.81 691.32,594.36 691.63,595.92 C692.26,599.07 690.65,600.79 688.63,599.11 C687.34,598.04 684.03,598.28 681.75,599.62 C681.06,600.02 681.36,599.25 682.41,597.92 C684.88,594.80 679.88,599.96 671.15,609.48 C673.94,606.30 675.76,604.12 675.88,603.81 C676.08,603.22 687.43,590.40 701.09,575.33 C731.25,542.03 732.52,539.97 732.47,524.52 C732.44,515.67 732.13,513.92 729.81,509.50 C725.49,501.28 720.55,496.38 712.70,492.51 C699.96,486.23 687.71,486.65 675.28,493.80 C670.11,496.77 664.91,501.99 644.67,524.44 C631.26,539.32 608.92,564.10 595.02,579.50 C593.64,581.04 592.20,582.62 590.74,584.25 C600.98,572.76 607.80,564.49 607.45,563.92 C607.06,563.29 609.10,560.44 612.13,557.37 C615.08,554.38 617.43,551.61 617.35,551.22 C617.27,550.82 617.68,550.64 618.27,550.81 C618.86,550.97 618.70,550.33 617.92,549.36 C617.09,548.35 617.01,547.92 617.71,548.34 C618.96,549.09 623.00,545.80 623.00,544.04 C623.00,543.51 622.17,542.27 621.16,541.29 C620.15,540.31 619.04,538.71 618.69,537.75 C618.22,536.43 616.94,536.00 613.44,536.00 C607.48,536.00 603.45,533.57 601.55,528.84 C599.60,523.95 596.66,522.13 588.57,520.79 C582.67,519.82 581.45,519.19 577.11,514.92 L 572.25 510.14 L 564.83 510.70 C559.50,511.10 555.81,510.80 551.80,509.63 C548.71,508.73 544.12,508.00 541.60,508.00 C537.03,508.00 537.00,507.98 537.00,504.57 C537.00,500.84 534.88,498.00 532.08,498.00 C531.11,498.00 529.50,497.10 528.50,496.00 C527.19,494.55 525.42,494.00 522.10,494.00 C516.44,493.99 511.00,490.00 511.00,485.84 C511.00,481.14 507.78,480.14 500.32,482.50 C498.45,483.10 498.01,482.68 497.12,479.45 C496.49,477.18 496.44,475.05 496.98,474.03 C497.55,472.97 497.33,469.91 496.36,465.68 L 494.84 459.00 L 486.64 459.00 C479.81,459.00 478.17,459.32 476.81,460.91 C475.66,462.25 473.21,463.03 468.61,463.53 C460.87,464.35 459.27,463.91 458.83,460.83 C458.56,458.97 457.11,458.07 451.00,455.96 C440.80,452.45 439.00,451.35 439.00,448.62 C439.00,446.06 436.67,443.59 433.28,442.56 C431.69,442.08 430.90,440.84 430.47,438.19 C429.52,432.31 428.16,429.72 426.38,430.41 C425.52,430.74 423.70,431.29 422.34,431.63 C419.94,432.23 419.89,432.12 420.56,428.38 C420.95,426.24 421.69,423.96 422.22,423.29 C423.33,421.89 422.30,419.69 420.93,420.54 C420.42,420.86 420.00,421.71 420.00,422.43 C420.00,424.93 413.48,431.00 410.80,431.00 C407.83,431.00 406.56,429.67 405.56,425.51 C404.61,421.56 403.22,420.00 400.63,420.00 C399.46,419.99 397.09,419.13 395.37,418.09 C392.91,416.59 392.06,415.19 391.37,411.52 C390.52,406.97 390.36,406.80 385.00,404.96 C381.98,403.92 378.10,403.05 376.39,403.03 C373.92,403.01 372.72,402.20 370.61,399.16 C366.77,393.62 367.75,391.95 375.49,390.78 C377.06,390.54 377.66,389.35 378.33,385.16 C378.80,382.24 378.87,379.54 378.50,379.17 C378.13,378.80 373.48,378.50 368.17,378.50 L 358.50 378.50 L 358.65 375.25 C358.76,372.79 358.38,372.00 357.08,372.00 C356.13,372.00 354.38,370.88 353.19,369.50 C351.46,367.52 350.07,367.00 346.47,367.00 C343.41,367.00 340.98,366.31 339.08,364.90 C336.33,362.86 336.11,362.85 332.62,364.51 C328.30,366.56 324.46,365.86 323.68,362.88 C323.26,361.28 322.66,360.93 321.31,361.48 C316.85,363.32 315.88,363.26 315.33,361.15 C314.85,359.30 314.27,359.71 310.64,364.48 C301.39,376.61 292.20,390.51 283.70,405.03 C292.08,390.61 301.06,376.98 310.08,365.18 C312.05,362.61 313.92,359.83 314.24,359.00 C314.98,357.04 327.32,341.77 336.87,331.00 C341.01,326.33 362.00,304.73 383.50,283.00 C405.01,261.27 426.55,238.77 431.37,233.00 C455.00,204.70 473.14,170.42 481.05,139.16 C485.60,121.15 487.29,106.86 487.26,86.50 C487.25,76.60 487.44,68.16 487.68,67.75 C488.28,66.73 492.90,69.23 503.50,76.32 C545.84,104.63 586.55,156.84 608.51,211.00 C619.36,237.76 625.62,261.31 629.64,290.50 C631.97,307.45 632.00,342.26 629.69,359.63 C626.41,384.41 619.09,411.76 609.99,433.27 C608.18,437.54 606.94,441.27 607.23,441.56 C608.26,442.59 621.25,439.89 629.17,437.00 C650.92,429.06 670.53,410.67 682.88,386.64 C691.69,369.49 698.98,341.76 698.99,325.36 C699.00,321.04 699.41,319.06 700.39,318.68 C702.04,318.05 716.89,332.98 725.58,344.00 C759.20,386.65 784.26,446.38 794.39,508.00 C798.70,534.26 799.42,544.02 799.46,576.50 C799.50,608.02 798.85,617.46 794.93,642.00 C792.49,657.29 786.89,680.51 783.04,692.64 ZM 694.09 590.55 C694.81,591.00 695.09,590.77 694.82,589.95 C694.08,587.75 692.56,587.87 691.08,590.25 C689.81,592.29 689.83,592.38 691.30,591.16 C692.18,590.43 693.44,590.15 694.09,590.55 ZM 789.97 663.25 C789.94,660.89 789.79,660.75 788.92,662.26 C788.35,663.22 788.17,664.46 788.50,665.01 C789.54,666.68 790.00,666.13 789.97,663.25 ZM 256.88 458.92 C256.80,459.12 256.73,459.31 256.65,459.50 C253.14,468.18 249.22,479.09 246.36,487.83 C246.45,487.55 246.54,487.28 246.62,487.00 C249.40,478.05 252.87,468.59 256.88,458.92 ZM 579.81 596.38 C569.61,607.70 559.50,618.96 553.65,625.50 C549.14,630.54 544.51,635.70 539.87,640.86 C543.68,636.62 547.40,632.46 550.94,628.50 C557.05,621.65 569.03,608.33 579.81,596.38 ZM 488.44 806.85 C487.13,807.28 485.74,807.63 484.18,808.00 C483.91,808.06 483.62,808.12 483.33,808.17 C484.07,808.01 484.84,807.82 485.66,807.60 C486.96,807.26 488.14,806.91 489.26,806.51 C488.98,806.63 488.71,806.74 488.44,806.85 ZM 497.38 801.79 C502.63,797.52 509.80,789.74 523.87,774.05 C535.72,760.84 546.72,748.47 550.39,744.22 C546.72,748.47 535.70,760.87 523.83,774.10 C510.02,789.49 502.80,797.36 497.45,801.74 ZM 502.61 681.90 C496.72,688.34 491.58,693.91 487.62,698.16 L 487.61 698.16 C491.61,693.87 496.77,688.28 502.61,681.90 ZM 460.41 803.05 C459.28,802.43 458.32,801.82 457.64,801.28 C457.59,801.24 457.53,801.19 457.46,801.13 C458.34,801.78 459.32,802.42 460.41,803.05 ZM 779.88 700.45 C779.39,700.97 779.00,702.24 779.00,703.26 C779.00,702.24 779.38,700.97 779.83,700.45 C779.97,700.30 780.10,700.13 780.23,699.95 C780.11,700.16 779.99,700.33 779.88,700.45 ZM 483.76 702.26 L 483.80 702.22 C480.92,705.27 479.22,706.99 479.06,707.00 C479.22,706.99 480.91,705.27 483.76,702.26 ZM 361.68 697.34 C359.05,694.37 356.63,691.59 354.52,689.08 C356.63,691.58 359.06,694.38 361.72,697.38 ZM 628.29 656.84 C631.22,653.58 634.16,650.32 637.10,647.07 C633.82,650.70 630.92,653.92 628.29,656.84 Z" fill="rgb(253,121,4)"/>
</g>
</svg>
